<?xml version="1.0" standalone="no"?>
<!DOCTYPE svg PUBLIC "-//W3C//DTD SVG 20010904//EN"
 "http://www.w3.org/TR/2001/REC-SVG-20010904/DTD/svg10.dtd">
<svg version="1.0" xmlns="http://www.w3.org/2000/svg"
 width="70.000000pt" height="70.000000pt" viewBox="0 0 70.000000 70.000000"
 preserveAspectRatio="xMidYMid meet">
<metadata>
Created by potrace 1.14, written by Peter Selinger 2001-2017
</metadata>
<g transform="translate(0.000000,70.000000) scale(0.100000,-0.100000)"
fill="#000000" stroke="none">
<path d="M208 621 c-3 -14 -2 -533 1 -553 2 -13 175 8 205 24 49 27 73 76 70
143 -1 17 -2 43 -3 58 -1 17 -13 40 -30 58 -27 27 -28 30 -12 41 25 18 38 65
35 120 -5 97 -39 121 -169 123 -77 1 -94 -1 -97 -14z m171 -95 c5 -11 7 -34 6
-51 -2 -16 -3 -35 -4 -42 -1 -16 -62 -36 -74 -24 -11 11 -17 115 -8 129 7 12
41 20 59 14 8 -3 17 -14 21 -26z m3 -214 c13 -13 12 -132 -1 -145 -5 -5 -26
-10 -47 -11 l-37 -1 -1 65 c-3 105 0 113 42 106 19 -3 39 -9 44 -14z"/>
</g>
</svg>
